Inverse Dynamics Generalized Forces
version=1
nRows=5
nColumns=34
inDegrees=no
endheader 
time	pelvis_tilt_moment	pelvis_list_moment	pelvis_rotation_moment	pelvis_tx_force	pelvis_ty_force	pelvis_tz_force	hip_flexion_l_moment	hip_adduction_l_moment	hip_rotation_l_moment	hip_flexion_r_moment	hip_adduction_r_moment	hip_rotation_r_moment	knee_angle_l_moment	knee_angle_r_moment	ankle_angle_l_moment	ankle_angle_r_moment	subtalar_angle_l_moment	subtalar_angle_r_moment	mtp_angle_l_moment	mtp_angle_r_moment	lumbar_extension_moment	lumbar_bending_moment	lumbar_rotation_moment	arm_flex_l_moment	arm_add_l_moment	arm_rot_l_moment	arm_flex_r_moment	arm_add_r_moment	arm_rot_r_moment	elbow_flex_l_moment	elbow_flex_r_moment	pro_sup_l_moment	pro_sup_r_moment	
          5.38000000	          0.00000000	         -0.00000000	         -0.00000000	         -0.00000000	          0.00000000	          0.00000000	        -95.82619327	       -113.53864259	         -5.59252136	        -10.03322911	        -25.09863700	         -0.07712830	         -8.19896900	         -2.73653012	        -77.55107641	          2.60512202	         22.72837517	         -1.49183294	          7.91352792	         -0.51543686	         76.68531888	         78.55710441	         -8.66440200	        -37.71379975	        -76.89268574	        -43.20794593	         14.02183272	         98.56388645	         38.29568071	          6.55777066	         50.45673065	         -2.99214864	          1.28358177	
          5.39000000	         -0.00000000	         -0.00000000	         -0.00000000	          0.00000000	          0.00000000	          0.00000000	        -71.72181709	        -98.73387357	         -6.94752042	         24.13000114	        -10.34002974	          1.79646866	         -6.92282657	        -12.34151106	        -73.88209509	          3.61668577	         19.42166516	         -0.13723081	          7.55644428	         -0.34987391	        -16.92642889	         95.11078937	         14.63811087	          9.11020962	        -95.11985821	        -69.50494280	        -29.65479179	        111.30454851	         68.11819591	         11.72418011	         31.94425220	         -4.02589178	          0.82891961	
          5.40000000	         -0.00000000	         -0.00000000	         -0.00000000	          0.00000000	          0.00000000	          0.00000000	        -13.47306961	        -71.63715719	         -2.88050513	         36.69493748	         15.62024122	          2.75128405	         10.09073862	        -14.30965521	        -89.33351414	          2.66791607	         21.95253832	          0.57557052	          8.63820727	         -0.16791849	        -87.27580816	         21.04079509	         -9.29843963	         44.37322506	       -108.69260721	        -89.00949686	        -62.88361210	        121.71153190	         91.59172704	        -19.97560543	         59.04071269	         -3.24094139	         -1.34776584	
          5.41000000	          0.00000000	         -0.00000000	         -0.00000000	          0.00000000	          0.00000000	          0.00000000	         30.55855900	        -53.97507812	          0.75072521	         61.73842440	         16.47224408	          5.56628288	         12.35777080	        -16.70715045	       -108.99706422	          1.37532284	         16.66322802	          0.70467267	         11.77529932	         -0.04161181	       -140.14133917	        -10.77682136	        -52.43824570	         70.82067601	       -118.84874147	       -103.56272933	        -84.67630832	        130.96097189	        106.90424729	        -47.37425822	         81.72886944	         -1.62659424	          2.29020903	
          5.42000000	         -0.00000000	          0.00000000	          0.00000000	         -0.00000000	          0.00000000	          0.00000000	         36.65179743	         22.49061642	          1.90317558	         59.28555752	          5.49900473	          5.72552707	         -5.12905343	        -14.53692316	        -60.23973267	          2.02415364	          9.42132637	         -0.09156750	          9.53619301	         -0.04773543	       -177.12893312	         65.27955644	          6.37925031	         16.08212767	       -126.42767874	        -77.44964334	        -96.30704558	        137.90891430	         38.96548997	        -52.55981126	         98.83869141	         -1.84403942	         -3.90308174	
